<?xml version="1.0" standalone="no"?>
<!DOCTYPE svg PUBLIC "-//W3C//DTD SVG 20010904//EN"
 "http://www.w3.org/TR/2001/REC-SVG-20010904/DTD/svg10.dtd">
<svg version="1.0" xmlns="http://www.w3.org/2000/svg"
 width="1920.000000pt" height="1080.000000pt" viewBox="0 0 1920.000000 1080.000000"
 preserveAspectRatio="xMidYMid meet">

<g transform="translate(0.000000,1080.000000) scale(0.100000,-0.100000)"
fill="#000000" stroke="none">
<path d="M15525 8616 c-34 -12 -67 -20 -74 -18 -7 2 -32 -10 -56 -27 -38 -27
-51 -31 -109 -31 -62 0 -67 -2 -107 -40 -23 -22 -46 -40 -51 -40 -5 0 -13 -13
-19 -28 -7 -20 -23 -34 -54 -46 -46 -19 -65 -49 -65 -105 0 -14 -7 -35 -15
-45 -25 -33 -18 -72 20 -115 37 -41 43 -70 24 -118 -32 -81 -41 -147 -45 -329
l-5 -192 30 -33 c37 -40 42 -85 18 -158 -20 -63 -10 -86 21 -46 l20 26 7 -58
c4 -32 15 -81 25 -109 11 -29 17 -54 14 -56 -2 -3 7 -15 21 -28 14 -13 25 -27
25 -32 0 -4 20 -44 45 -89 45 -81 80 -181 89 -249 3 -19 9 -49 15 -67 13 -44
4 -71 -38 -119 -61 -69 -162 -245 -144 -251 5 -2 7 -29 5 -60 -3 -49 -2 -55
11 -45 12 10 15 8 20 -15 4 -16 9 -39 13 -53 6 -24 6 -24 -9 -5 -12 15 -16 16
-17 5 0 -13 37 -51 94 -97 21 -18 37 -16 30 2 -6 15 4 19 39 16 15 -2 22 15
18 42 0 4 3 7 8 7 9 0 24 33 26 55 0 5 12 14 27 19 21 7 32 6 45 -6 22 -19 43
-13 43 12 0 10 5 22 10 25 6 3 10 17 10 30 0 23 0 23 31 -6 32 -30 99 -43 83
-16 -6 9 -5 9 8 -1 12 -10 18 -9 28 3 7 8 9 15 6 15 -4 0 0 7 8 16 20 20 20
31 -1 42 -14 9 -14 10 5 16 28 9 28 26 0 26 -20 0 -21 1 -3 20 14 15 21 17 32
9 7 -7 17 -9 20 -5 4 4 2 10 -5 15 -8 5 2 15 30 31 55 30 88 59 88 79 0 9 7
25 15 35 8 10 12 23 8 29 -3 6 -2 7 3 4 5 -3 21 11 34 31 13 20 38 49 55 63
40 35 165 129 171 129 2 0 4 -37 4 -83 0 -51 5 -88 12 -95 9 -9 9 -12 0 -12
-7 0 -12 -4 -12 -10 0 -5 6 -10 14 -10 11 0 12 -8 4 -42 -6 -24 -10 -53 -9
-66 1 -25 -30 -92 -60 -131 -11 -13 -19 -29 -19 -35 1 -14 50 45 50 59 0 6 18
30 40 53 22 23 43 55 46 72 4 16 9 30 13 30 4 0 8 12 9 27 3 32 12 45 12 16 0
-11 7 -33 15 -49 8 -16 11 -32 7 -36 -11 -11 -2 -239 9 -233 5 4 9 0 10 -7 0
-7 7 7 15 32 7 25 12 51 9 58 -3 7 -1 11 4 7 10 -5 27 50 22 73 -1 6 4 12 11
12 10 0 10 2 -1 9 -16 10 -22 61 -11 99 5 18 2 32 -7 42 -12 12 -109 165 -161
253 -20 35 -6 92 55 216 31 64 56 125 55 136 0 11 6 44 14 72 8 29 14 65 12
80 -2 17 -10 -9 -22 -67 -21 -105 -43 -151 -81 -168 -14 -6 -25 -16 -25 -22 0
-6 -4 -9 -9 -6 -5 3 -7 15 -4 27 5 19 4 19 -32 -5 -21 -14 -43 -26 -50 -26 -7
0 -26 -31 -43 -68 -16 -37 -37 -74 -46 -81 -9 -7 -13 -18 -9 -25 3 -6 2 -8 -2
-3 -5 4 -19 -3 -33 -15 -24 -24 -34 -24 -242 -18 -8 0 -48 -1 -89 -3 -50 -2
-78 1 -87 10 -7 7 -17 13 -23 13 -6 0 -18 12 -28 28 -10 15 -20 29 -23 32 -3
3 -11 19 -19 35 -7 17 -20 42 -27 57 -8 14 -14 35 -14 45 0 12 -12 23 -34 31
-35 13 -46 33 -46 85 0 17 5 27 15 27 11 0 14 -7 9 -25 -10 -40 3 -69 36 -82
16 -6 30 -7 30 -2 0 5 22 9 49 9 27 0 65 7 84 15 20 8 54 15 76 15 22 0 48 3
58 7 15 6 13 9 -12 14 l-30 6 35 10 c19 6 27 12 17 12 -10 1 -15 6 -12 11 9
15 72 12 89 -5 8 -8 25 -15 39 -15 44 0 39 -15 -10 -27 l-48 -11 55 -1 c30 -1
73 -6 95 -13 22 -6 58 -10 79 -9 22 0 45 -4 52 -10 24 -19 52 11 61 66 11 61
6 92 -14 100 -22 8 -24 3 -9 -26 13 -25 12 -25 -23 -28 -50 -3 -64 -5 -78 -14
-9 -5 -13 -2 -13 9 0 10 -3 15 -6 11 -4 -3 -13 1 -21 9 -8 8 -19 11 -25 8 -7
-4 -8 -2 -4 4 4 7 3 12 -3 12 -6 0 -8 6 -5 14 3 8 1 17 -5 21 -7 4 -5 14 5 31
9 13 12 24 8 24 -5 1 -28 5 -51 9 -34 7 -49 4 -73 -10 -38 -23 -73 -24 -110
-3 -20 12 -39 15 -73 10 -44 -7 -45 -8 -44 -41 1 -52 -24 -74 -84 -72 -27 1
-51 -2 -53 -8 -3 -5 -5 -1 -5 10 -1 12 4 26 10 32 20 20 0 36 -24 20 -34 -22
-96 -30 -114 -16 -12 11 -17 10 -25 -4 -5 -10 -14 -15 -19 -11 -5 3 -9 2 -8
-3 5 -20 -18 -48 -38 -49 -16 0 -23 5 -24 20 -3 42 -5 52 -18 108 -7 32 -17
60 -22 63 -13 9 -11 74 7 205 20 148 29 183 58 217 29 36 58 120 50 153 -12
57 -12 120 0 120 18 0 76 30 76 39 0 11 61 45 104 58 26 8 56 9 91 3 53 -9
112 -7 170 5 17 3 38 6 48 6 9 0 15 4 12 10 -4 5 47 9 128 9 121 0 140 -2 177
-22 24 -13 45 -29 47 -35 3 -7 11 -13 18 -13 6 0 20 -9 30 -20 10 -11 22 -17
26 -14 5 3 9 0 9 -7 0 -6 6 -17 14 -23 8 -6 17 -31 20 -56 11 -91 18 -116 48
-165 27 -43 33 -67 45 -170 7 -66 16 -163 20 -216 3 -56 11 -103 19 -114 21
-28 28 -10 15 37 -20 71 -19 153 2 176 15 16 20 47 26 168 5 82 5 156 0 165
-14 28 -10 198 6 229 20 39 19 68 -6 115 -13 24 -23 64 -26 104 -5 84 -19 112
-67 134 -21 10 -40 26 -43 35 -6 26 -63 60 -110 68 -29 4 -53 17 -74 38 -22
23 -41 33 -68 34 -21 2 -62 11 -91 22 -37 14 -66 18 -92 13 -22 -3 -49 -1 -61
5 -12 6 -38 13 -57 15 -19 2 -42 6 -50 9 -8 3 -42 -4 -75 -16z m371 -1553
c-10 -10 -19 5 -10 18 6 11 8 11 12 0 2 -7 1 -15 -2 -18z"/>
<path d="M15818 7736 c-42 -37 -70 -101 -62 -141 3 -20 12 -35 20 -35 8 0 14
-7 14 -16 0 -10 5 -14 16 -10 8 3 12 2 9 -4 -6 -10 12 -14 53 -10 12 1 22 -3
22 -9 0 -6 -12 -11 -27 -11 l-28 -1 28 -15 c38 -21 116 -28 147 -14 47 21 70
37 63 43 -3 4 -11 3 -17 -2 -16 -13 -116 -20 -116 -8 0 5 -9 7 -20 4 -11 -3
-18 -1 -14 4 3 5 -6 14 -21 21 -26 12 -29 28 -6 36 7 2 15 -6 18 -18 6 -21 9
-21 127 -16 68 3 122 10 124 16 2 6 8 8 13 4 5 -3 9 1 9 9 0 23 -25 65 -54 92
-15 14 -24 30 -21 35 4 6 -14 0 -39 -12 -38 -18 -48 -20 -59 -9 -10 11 -9 13
5 8 12 -4 15 -2 12 8 -4 9 7 15 37 20 34 6 45 4 55 -10 12 -16 14 -16 34 3
l22 20 -26 17 c-14 9 -29 14 -35 11 -5 -3 -12 0 -14 6 -4 9 -6 9 -6 1 -1 -8
-10 -9 -33 -2 -18 5 -71 9 -118 9 -75 -1 -88 -3 -112 -24z m188 -105 c23 -10
45 -25 49 -32 6 -8 4 -10 -6 -3 -8 4 -50 11 -94 14 l-80 5 35 17 c44 22 46 22
96 -1z m14 -71 c0 -5 -4 -10 -10 -10 -5 0 -10 5 -10 10 0 6 5 10 10 10 6 0 10
-4 10 -10z"/>
<path d="M15328 7731 c-72 -5 -91 -10 -111 -29 -16 -15 -23 -30 -20 -43 3 -10
0 -25 -6 -33 -7 -8 -11 -18 -9 -22 1 -5 -2 -24 -6 -41 -12 -50 0 -73 37 -73
48 0 79 -11 73 -25 -5 -14 36 -26 95 -28 40 -1 129 29 129 45 0 5 -9 6 -22 1
-29 -10 -138 -7 -150 5 -5 5 15 12 49 16 43 5 62 12 75 28 14 19 19 20 32 9 9
-7 14 -16 12 -20 -3 -4 3 -7 12 -7 9 0 32 -4 50 -8 30 -7 33 -6 48 29 20 49 3
145 -27 145 -6 0 -18 9 -27 20 -18 22 -79 41 -122 38 -14 -1 -64 -4 -112 -7z
m83 -96 l34 -14 -40 -2 c-22 -1 -55 -3 -73 -5 -33 -2 -33 -2 -16 17 21 23 50
24 95 4z m64 -35 c14 -6 -2 -9 -50 -9 -48 0 -64 3 -50 9 11 5 34 9 50 9 17 0
39 -4 50 -9z m-110 -70 c3 -5 2 -10 -4 -10 -5 0 -13 5 -16 10 -3 6 -2 10 4 10
5 0 13 -4 16 -10z"/>
<path d="M16362 7447 c-26 -27 -28 -39 -7 -31 8 4 27 -7 45 -24 l30 -30 0 42
c0 66 -29 84 -68 43z"/>
<path d="M14916 7399 c-3 -17 -6 -43 -6 -58 1 -25 1 -26 16 -6 8 11 20 19 26
17 5 -1 16 3 24 9 11 9 18 8 32 -2 16 -13 16 -12 2 6 -53 74 -84 85 -94 34z"/>
<path d="M15524 6985 c11 -8 27 -15 35 -15 10 1 7 6 -9 15 -33 19 -50 18 -26
0z"/>
<path d="M15533 6903 c-26 -69 119 -103 225 -54 29 14 51 29 49 35 -8 23 -266
41 -274 19z"/>
<path d="M16080 6629 c0 -5 5 -7 10 -4 6 3 10 8 10 11 0 2 -4 4 -10 4 -5 0
-10 -5 -10 -11z"/>
<path d="M16429 6294 c11 -15 18 -31 14 -37 -3 -5 -1 -7 5 -3 5 3 13 0 15 -6
3 -7 6 -1 6 14 1 17 -7 33 -21 42 -34 24 -42 19 -19 -10z"/>
<path d="M16425 6230 c-4 -6 6 -10 24 -10 41 0 110 -28 141 -56 37 -34 132
-74 198 -84 84 -12 135 -25 252 -64 113 -37 148 -42 54 -6 -90 33 -223 70
-289 79 -77 11 -154 41 -202 78 -60 46 -165 83 -178 63z"/>
<path d="M15051 6186 c-9 -11 -9 -16 0 -21 10 -7 28 10 29 28 0 12 -17 8 -29
-7z"/>
<path d="M16030 6127 c-31 -28 -65 -59 -75 -68 -24 -19 -54 -54 -77 -91 -10
-15 -31 -35 -48 -44 -45 -27 -36 -39 10 -13 22 12 43 19 47 15 13 -13 -14 -41
-43 -44 -58 -7 -55 -27 4 -22 31 2 28 -17 -7 -34 -16 -9 -72 -45 -124 -80 -72
-49 -97 -61 -101 -50 -6 16 -58 40 -174 80 -64 23 -86 37 -132 83 -30 31 -80
75 -111 98 -38 27 -63 55 -75 82 -28 64 -36 59 -187 -112 -31 -36 -71 -71 -87
-79 -17 -7 -30 -16 -30 -20 0 -20 32 -2 108 62 46 39 87 70 90 70 4 -1 -2 -9
-13 -18 -25 -22 -85 -98 -85 -108 0 -4 -6 -15 -14 -23 -33 -37 -27 -151 9
-151 8 0 15 -7 15 -15 0 -19 46 -49 61 -39 8 4 9 3 5 -4 -5 -8 11 -11 54 -9
33 1 60 0 60 -3 0 -3 14 -5 30 -6 17 -1 28 1 25 4 -9 10 88 31 117 26 23 -3
63 10 129 42 3 2 29 -8 57 -22 29 -14 58 -22 64 -18 8 5 9 2 3 -12 -4 -10 -17
-45 -28 -77 -11 -33 -34 -72 -49 -88 -21 -20 -28 -35 -23 -49 18 -56 15 -67
-28 -111 -23 -24 -51 -51 -62 -60 -11 -9 -27 -25 -36 -36 -9 -11 -22 -22 -29
-25 -10 -3 -10 -9 -1 -26 11 -21 10 -22 -14 -18 -24 5 -26 2 -21 -18 4 -16 1
-26 -9 -30 -24 -9 -17 -51 16 -92 45 -55 62 -100 49 -124 -16 -30 -43 -22 -53
15 -4 11 -5 4 -3 -15 3 -33 -15 -66 -28 -53 -3 4 -6 -1 -6 -9 0 -9 -7 -18 -15
-22 -8 -3 -15 -12 -15 -21 0 -8 -6 -15 -14 -15 -8 0 -18 -5 -22 -12 -5 -7 -3
-8 6 -3 8 5 11 4 6 -3 -7 -12 -56 -11 -55 1 1 5 -11 21 -26 37 -32 33 -72 36
-100 6 -11 -12 -28 -20 -39 -18 -11 2 -16 0 -12 -6 8 -13 -10 -25 -42 -28 -19
-2 -23 1 -19 17 3 10 2 19 -3 19 -4 0 -10 9 -13 20 -3 11 -10 20 -17 20 -7 0
-14 -9 -17 -20 -3 -11 -9 -20 -13 -20 -18 0 -15 -36 4 -46 19 -11 19 -12 -4
-19 -27 -9 -48 12 -57 58 -3 15 -10 27 -14 27 -5 0 -15 11 -21 25 -7 17 -19
25 -36 25 -13 0 -41 14 -62 30 -21 16 -43 30 -49 30 -11 0 -31 31 -31 49 0 6
13 23 29 37 24 21 51 77 39 80 -2 0 2 7 8 15 27 34 23 44 -19 46 -38 1 -74
-17 -60 -31 4 -3 1 -6 -5 -6 -7 0 -24 24 -38 53 -33 66 -61 88 -81 61 -11 -15
-13 -5 -14 72 0 91 -15 95 -20 4 -1 -25 -4 -35 -6 -23 -2 12 -12 27 -21 35
-13 11 -15 11 -7 -2 5 -10 5 -12 -2 -5 -14 14 -32 83 -48 186 -8 47 -19 96
-24 110 -9 22 -10 21 -12 -16 -3 -56 -3 -55 -26 -100 -31 -61 -52 -200 -63
-420 -5 -110 -15 -267 -21 -348 -10 -123 -10 -152 2 -173 12 -23 11 -28 -4
-39 -19 -13 -25 -105 -7 -105 5 0 9 10 7 21 -1 12 3 24 10 26 9 3 11 -8 7 -44
-12 -99 65 -357 120 -402 36 -30 -26 -42 -91 -19 -28 10 -33 16 -29 34 3 12
-1 35 -9 50 -8 16 -15 37 -15 46 0 9 -4 20 -10 23 -6 4 -10 -16 -10 -54 0 -33
-4 -62 -9 -65 -5 -3 -12 -36 -16 -73 -6 -56 -4 -69 10 -79 15 -11 15 -13 -3
-18 -27 -9 -72 -77 -72 -109 0 -32 0 -32 75 -6 33 12 92 23 130 25 l70 4 -105
-35 c-58 -18 -123 -40 -144 -47 -31 -10 -42 -20 -48 -43 -11 -43 -4 -59 21
-43 15 9 44 8 138 -6 65 -10 124 -21 131 -25 8 -4 -56 -6 -141 -3 -172 5 -174
4 -161 -65 5 -28 8 -31 18 -18 6 8 37 20 70 25 65 10 132 0 200 -31 23 -10 62
-19 88 -19 47 0 78 -18 78 -45 0 -8 9 -17 20 -20 11 -3 25 -16 32 -28 14 -26
19 -137 6 -137 -4 0 -8 -12 -7 -27 1 -16 -3 -46 -9 -68 -7 -22 -17 -76 -23
-120 -6 -44 -15 -86 -21 -92 -6 -7 -8 -13 -5 -13 10 0 -23 -99 -57 -174 -18
-39 -40 -93 -49 -121 -9 -27 -28 -81 -42 -120 -15 -38 -29 -79 -32 -90 -2 -11
-9 -29 -13 -40 -34 -80 -79 -199 -76 -202 5 -5 30 37 46 77 8 19 61 129 117
244 57 114 110 223 118 242 16 39 31 43 40 14 4 -12 29 -48 56 -81 l50 -59
-21 -46 c-11 -26 -20 -51 -20 -56 0 -4 -24 -40 -54 -79 -102 -134 -208 -376
-209 -477 0 -50 42 -152 84 -203 18 -22 19 -30 9 -49 -6 -12 -9 -32 -6 -45 5
-21 -30 -581 -53 -833 -11 -117 -8 -136 48 -412 21 -107 45 -228 52 -268 l13
-72 627 0 c562 0 627 2 633 16 11 29 6 162 -9 234 -8 39 -12 90 -9 113 14 105
37 228 44 232 12 8 27 -36 59 -179 18 -76 42 -166 55 -200 13 -33 31 -96 41
-138 l19 -78 633 0 633 0 -8 78 c-10 104 -9 430 2 746 7 198 6 257 -3 252 -7
-4 -9 -16 -6 -26 3 -10 2 -21 -4 -24 -5 -3 -11 13 -13 37 -5 45 7 72 21 48 6
-9 10 0 13 28 2 22 1 41 -2 41 -4 0 -19 -14 -35 -30 -16 -16 -34 -30 -41 -30
-7 0 -14 -5 -16 -11 -5 -14 -38 0 -38 16 0 28 55 76 131 116 70 36 118 79 90
79 -22 0 -149 -85 -182 -123 l-36 -41 -27 27 c-14 14 -26 31 -26 36 0 6 25 27
55 47 30 20 55 41 55 46 0 11 -34 -6 -78 -39 -18 -14 -34 -23 -36 -22 -21 31
-57 136 -52 155 5 17 2 24 -8 24 -15 0 -49 72 -77 164 l-18 59 40 66 c22 36
47 77 56 91 8 14 -13 -6 -48 -44 l-64 -68 -16 34 c-9 18 -22 59 -29 90 -12 53
-11 58 9 87 15 21 54 46 117 77 80 38 94 48 89 64 -9 28 -23 294 -16 301 3 3
24 11 46 17 38 11 42 16 79 99 46 103 86 215 86 240 0 10 7 37 15 60 19 55 32
233 17 233 -6 0 -18 -10 -26 -21 -10 -14 -22 -20 -35 -16 -12 3 -22 -1 -25
-10 -3 -8 -10 -12 -15 -9 -12 8 -41 -3 -41 -15 0 -5 8 -9 17 -9 11 0 5 -8 -18
-25 -40 -30 -47 -46 -48 -100 -1 -27 2 -36 9 -29 10 10 14 30 19 82 3 29 61 5
61 -26 0 -12 -3 -12 -15 -2 -25 21 -42 -3 -18 -27 19 -19 23 -36 11 -48 -4 -4
-3 -17 2 -29 15 -41 -35 -273 -64 -294 -6 -4 -101 -3 -211 2 -198 11 -200 11
-212 36 -7 14 -13 35 -13 48 0 12 -4 22 -9 22 -9 0 -31 52 -31 73 0 5 6 4 14
-2 11 -9 18 -6 35 18 12 16 21 34 21 41 0 7 11 21 25 32 14 11 25 25 25 33 0
15 19 32 40 37 8 2 18 8 22 13 4 6 11 10 15 11 20 2 60 23 72 38 7 9 26 16 41
16 35 0 61 10 55 20 -2 4 4 15 15 25 11 10 20 28 20 39 0 12 9 32 20 46 11 14
20 29 20 34 0 5 8 18 18 29 12 15 14 21 5 24 -19 7 -16 44 5 59 16 13 16 13 0
14 -10 0 -18 4 -18 10 0 18 65 6 68 -13 2 -10 0 -17 -5 -16 -20 4 -34 -2 -28
-12 4 -6 14 -8 22 -4 9 3 25 -1 37 -8 29 -19 76 -27 77 -13 0 6 2 21 3 34 2
12 -1 22 -6 22 -5 0 -13 11 -18 25 -5 14 -14 25 -19 25 -5 0 -14 15 -21 33 -7
17 -23 40 -34 49 -17 14 -19 19 -8 29 14 15 16 49 2 49 -5 0 -10 7 -10 15 0 8
-7 15 -15 15 -8 0 -15 4 -15 8 0 17 39 5 58 -18 l19 -23 7 28 c10 39 44 68 73
60 19 -4 24 0 32 32 11 41 48 373 62 548 17 226 23 265 43 264 11 0 97 -101
127 -149 9 -14 26 -56 38 -95 12 -38 37 -101 55 -140 18 -38 41 -91 51 -118
22 -57 81 -113 129 -122 33 -7 34 -8 29 -43 l-6 -37 34 50 c57 83 192 133 324
121 108 -10 130 -8 190 24 30 16 59 28 63 27 4 -1 8 21 10 50 2 40 -4 70 -28
130 -17 43 -33 79 -35 82 -3 2 -12 -2 -20 -9 -12 -10 -24 -11 -54 -1 -21 6
-48 11 -59 11 -11 0 -22 5 -24 10 -5 15 -94 24 -103 11 -3 -6 -11 -9 -16 -5
-6 3 -22 1 -37 -4 -58 -22 -69 -24 -119 -28 -29 -3 -53 -1 -53 4 0 8 70 37 83
34 6 -2 11 12 9 29 -1 3 17 16 39 28 22 13 38 25 35 28 -3 3 -16 -2 -30 -10
-13 -9 -43 -18 -65 -19 -23 -2 -41 -6 -41 -10 0 -5 -5 -8 -12 -8 -27 0 21 31
137 89 129 63 191 85 201 70 8 -14 24 0 24 22 0 27 -21 21 -214 -62 -88 -38
-161 -67 -163 -65 -3 3 155 79 285 136 75 34 79 39 62 70 -10 19 -11 19 -43 0
-40 -23 -325 -103 -343 -96 -16 6 -19 36 -3 36 5 0 15 14 20 30 8 20 18 30 32
31 12 0 33 3 47 5 14 3 39 5 55 4 17 0 63 10 103 22 63 20 72 25 72 46 0 22 2
23 16 11 15 -12 16 -11 11 6 -3 11 -11 45 -17 76 -12 60 -30 94 -52 94 -70 3
-190 34 -186 47 6 18 71 36 117 32 31 -3 41 0 37 9 -2 6 -12 36 -22 66 -9 30
-28 66 -42 79 l-25 26 -18 -22 c-22 -27 -27 -27 -61 1 -27 22 -27 22 -12 66 9
24 14 58 11 75 -2 17 2 51 9 76 22 72 18 138 -12 190 -15 25 -41 70 -58 101
-17 31 -48 76 -68 99 -38 43 -53 80 -68 174 -9 57 -60 178 -67 160 -3 -9 -12
-9 -32 -1 -15 6 -35 7 -45 4 -20 -8 -22 -55 -2 -63 16 -6 150 -174 143 -180
-2 -2 -35 28 -73 67 -72 76 -138 119 -155 102 -6 -6 -4 -32 5 -73 14 -60 15
-95 2 -53 -7 22 -58 44 -76 33 -6 -4 -18 -40 -26 -81 -15 -80 -39 -139 -56
-139 -6 0 -8 -12 -4 -31 6 -29 4 -31 -19 -25 -17 4 -30 0 -45 -16 -11 -12 -20
-26 -20 -32 0 -5 -2 -7 -5 -5 -6 6 31 94 73 177 18 34 27 62 22 62 -6 0 -16
-13 -21 -30 -6 -16 -18 -30 -26 -30 -9 0 -13 6 -9 15 3 10 -1 15 -13 15 -19 0
-31 38 -36 110 -3 46 -5 50 -21 50 -8 0 -12 -4 -9 -10 3 -6 -1 -7 -9 -4 -9 3
-14 9 -12 13 3 4 -5 18 -16 31 -10 14 -17 18 -15 10 2 -8 -3 -23 -11 -33 -9
-10 -17 -35 -17 -55 -7 -241 -7 -249 -16 -197 -5 28 -10 56 -11 63 -2 19 -12
14 -30 -15 -21 -36 -98 -113 -112 -113 -15 0 -35 -48 -38 -92 -1 -28 -13 -48
-48 -86 -25 -26 -60 -65 -78 -86 -28 -33 -34 -35 -54 -25 -12 7 -36 27 -54 45
-39 42 -55 43 -52 4 1 -16 6 -30 10 -30 4 0 3 -11 -2 -25 -6 -16 -6 -25 0 -25
6 0 10 -5 10 -10 0 -6 -11 -8 -25 -4 -15 4 -25 2 -25 -5 0 -6 5 -11 11 -11 5
0 7 -5 3 -11 -3 -6 -14 -9 -23 -6 -12 3 -16 -4 -17 -27 -1 -17 4 -34 10 -38 8
-6 7 -8 -1 -8 -19 0 -16 -27 4 -38 16 -9 16 -12 -1 -36 -17 -27 -42 -29 -73
-4 -7 5 -14 5 -18 -2 -3 -5 -22 -10 -41 -10 -41 0 -87 -22 -107 -51 l-15 -20
-15 21 c-9 12 -13 29 -10 36 5 14 -30 48 -75 71 -21 12 -82 10 -139 -2 -14 -3
-23 -1 -24 7 0 7 -4 4 -9 -7 -5 -11 -9 -14 -9 -7 -1 6 -6 12 -11 12 -7 0 -7
-6 -1 -19 9 -15 7 -20 -9 -24 -11 -3 -23 0 -27 5 -3 7 -1 8 5 4 7 -4 12 -3 12
3 0 13 -35 32 -44 24 -3 -3 -6 -1 -6 5 0 8 -8 8 -30 1 -16 -6 -27 -15 -24 -20
3 -5 -1 -6 -9 -4 -27 11 -83 -59 -71 -89 3 -8 -3 -23 -14 -34 -11 -11 -18 -23
-14 -26 3 -3 0 -6 -6 -6 -7 0 -12 -10 -12 -23 0 -24 -41 -71 -53 -62 -4 3 -5
2 -2 -2 9 -11 -15 -31 -33 -27 -9 2 -30 -7 -47 -21 -16 -14 -24 -25 -17 -25 6
0 12 -9 12 -19 0 -17 -4 -18 -36 -11 -21 5 -40 13 -43 17 -3 5 -19 10 -36 10
-54 1 -55 2 -55 37 0 19 -4 37 -9 40 -11 7 -21 -96 -20 -198 1 -76 2 -78 9
-33 10 56 20 73 20 34 0 -15 3 -27 6 -27 11 0 33 28 27 34 -4 3 -1 6 5 6 7 0
12 -7 12 -16 0 -8 5 -12 11 -8 6 3 15 1 19 -6 10 -16 60 -20 60 -6 0 6 5 5 12
-2 14 -14 57 -16 77 -3 8 6 24 6 38 0 27 -10 56 -2 46 14 -4 6 2 8 16 4 18 -4
20 -3 11 8 -17 20 -21 58 -8 66 8 5 17 -3 25 -22 8 -19 17 -28 25 -23 7 5 9 2
6 -8 -4 -8 -2 -21 2 -29 5 -8 4 -19 -3 -28 -10 -12 -9 -13 2 -6 11 6 13 4 8
-7 -3 -9 -3 -19 1 -22 3 -4 7 -17 8 -29 2 -12 0 -16 -2 -9 -11 25 -25 12 -19
-18 4 -20 3 -30 -5 -30 -6 0 -10 -8 -8 -17 2 -10 -5 -26 -15 -36 -11 -11 -17
-27 -14 -38 3 -10 1 -22 -4 -25 -6 -3 -9 -13 -7 -23 1 -9 -6 -26 -17 -37 -11
-11 -26 -30 -34 -42 -8 -11 -18 -19 -23 -16 -4 3 -8 1 -8 -3 0 -5 -7 -18 -16
-29 -14 -18 -15 -18 -4 4 11 22 10 23 -9 12 -12 -6 -21 -14 -21 -18 0 -4 -13
-9 -30 -10 -24 -2 -30 2 -30 17 0 11 -5 23 -11 27 -8 4 -9 0 -4 -15 4 -15 2
-21 -9 -21 -8 0 -18 5 -21 10 -5 8 -11 8 -19 1 -7 -6 -16 -7 -20 -3 -4 4 -7 2
-6 -3 4 -18 -12 -55 -21 -49 -5 3 -7 9 -4 14 3 4 -4 6 -14 3 -13 -3 -19 0 -17
9 3 23 38 68 47 62 14 -8 29 5 23 21 -3 7 -12 11 -20 8 -8 -3 -14 -1 -14 4 0
5 11 9 24 9 14 0 22 -4 20 -8 -3 -4 6 -8 20 -8 14 0 26 5 26 11 0 8 12 10 35
6 46 -7 36 9 -10 17 -19 4 -42 17 -51 29 -11 15 -15 16 -11 5 8 -22 -12 -35
-24 -17 -24 38 -9 43 95 28 49 -7 72 -6 82 2 14 12 12 55 -2 53 -5 -1 -30 -4
-57 -7 -44 -6 -47 -5 -37 13 8 15 6 29 -9 57 -11 21 -20 32 -21 25 0 -7 5 -22
11 -34 24 -46 -16 -92 -61 -68 -26 14 -25 48 3 78 l22 25 -27 -18 c-21 -13
-28 -26 -28 -49 0 -25 -7 -34 -35 -48 l-35 -18 0 58 c0 73 -7 82 -53 74 -5 -1
1 -15 12 -31 40 -56 20 -152 -29 -144 -17 3 -100 -70 -100 -88 0 -7 -6 -20
-14 -28 -8 -9 -33 -51 -55 -94 -46 -88 -71 -127 -71 -110 0 7 4 14 9 18 5 3
13 20 17 37 3 18 22 65 40 105 18 40 30 73 27 73 -3 0 1 8 9 18 9 9 18 28 21
42 7 37 31 94 41 101 13 10 44 151 38 173 -5 17 -10 14 -41 -24 -52 -63 -137
-147 -163 -161 -51 -27 -118 -1 -118 46 0 17 7 24 28 28 30 6 112 72 112 90 0
7 20 33 44 59 39 42 69 97 45 82 -24 -15 32 87 71 129 17 18 30 37 30 44 0 7
6 10 13 7 8 -3 18 6 25 21 6 14 16 25 22 25 5 0 9 3 8 8 -3 10 55 101 65 102
14 0 7 -18 -23 -55 -32 -40 -35 -52 -21 -74 12 -19 51 3 51 30 0 39 23 109 35
109 7 0 24 6 38 13 20 11 23 17 15 25 -18 18 -51 15 -44 -3 3 -8 0 -14 -7 -12
-18 3 -23 52 -15 157 9 116 33 333 44 395 8 46 55 139 64 126 5 -9 10 -8 20 3
7 9 17 13 24 9 22 -14 62 -1 96 33 20 19 40 34 46 34 5 0 26 11 46 25 20 14
42 25 49 25 6 0 31 14 56 30 24 17 48 30 53 30 5 0 17 11 26 25 9 14 19 23 22
21 2 -3 16 0 31 7 14 7 61 13 106 12 44 0 83 4 87 9 3 5 13 3 21 -5 17 -18
102 -25 112 -9 3 6 10 8 15 5 19 -12 43 60 44 130 1 83 6 93 43 89 35 -5 -37
20 -137 46 -49 13 -85 30 -105 48 -29 28 -99 72 -113 72 -4 0 -32 -24 -62 -53z
m-538 -426 c13 -5 42 -15 66 -22 40 -12 41 -13 26 -31 -26 -28 -56 -22 -99 22
-39 40 -37 48 7 31z m1658 -51 c0 -5 -2 -10 -4 -10 -2 0 -12 -3 -22 -7 -16 -6
-17 -5 -4 10 17 19 30 22 30 7z m-1472 -56 c-5 -28 -72 -27 -75 1 -2 11 0 14
3 8 9 -20 32 -15 45 8 13 25 33 12 27 -17z m1905 -97 c6 6 11 -11 8 -29 0 -4
10 -10 24 -14 14 -3 23 -10 20 -14 -3 -5 0 -12 5 -15 6 -4 16 -18 21 -33 7
-18 13 -22 20 -15 8 8 32 -9 80 -55 39 -37 65 -68 59 -70 -5 -2 -10 -11 -10
-20 0 -14 -2 -14 -9 -3 -5 7 -13 11 -19 7 -5 -3 -20 3 -32 14 -12 11 -31 22
-41 25 -11 4 -19 10 -19 15 0 4 -9 6 -20 3 -11 -3 -20 0 -20 6 0 7 -8 8 -25 1
-24 -9 -25 -8 -25 35 0 33 5 47 21 59 20 14 18 43 -2 31 -5 -4 -9 -1 -9 4 0 6
-4 11 -8 11 -5 0 -8 -10 -8 -21 1 -12 -5 -24 -12 -27 -11 -3 -12 0 -3 15 6 13
7 23 0 30 -5 5 -14 24 -19 42 -7 26 -7 31 4 22 7 -6 16 -8 19 -4z m-354 -20
c-9 -7 -14 -17 -12 -23 2 -6 -3 -14 -12 -17 -18 -7 -18 -6 -5 27 5 15 17 26
27 26 16 -1 16 -2 2 -13z m-29 -66 c0 -5 -8 -15 -17 -22 -16 -12 -17 -12 -6 2
7 9 10 19 6 22 -3 4 -1 7 5 7 7 0 12 -4 12 -9z m-2948 -56 c2 -19 0 -35 -4
-35 -4 0 -8 16 -8 35 0 19 2 35 4 35 2 0 6 -16 8 -35z m5 -77 c-3 -7 -5 -2 -5
12 0 14 2 19 5 13 2 -7 2 -19 0 -25z m3554 -248 c-8 -69 -13 -87 -36 -109 -14
-14 -25 -21 -24 -16 1 6 0 12 -1 15 -1 3 -4 29 -6 58 -3 40 1 63 16 93 12 22
25 37 30 34 5 -3 12 0 15 6 14 21 15 0 6 -81z m-2427 -58 c-4 -4 -9 -1 -11 6
-7 17 -33 15 -33 -4 0 -9 -5 -12 -12 -8 -9 6 -9 3 1 -9 7 -9 10 -25 6 -34 -6
-16 -8 -15 -25 7 -11 14 -20 35 -20 48 0 23 14 30 25 12 4 -6 11 -7 17 -4 6 4
6 10 0 16 -6 6 -8 17 -5 26 5 12 12 8 35 -17 16 -18 26 -36 22 -39z m1644 -61
c-13 -4 -24 8 -33 39 -7 23 -7 23 18 -5 14 -17 21 -32 15 -34z m-768 -141 c0
-5 -5 -10 -11 -10 -5 0 -7 5 -4 10 3 6 8 10 11 10 2 0 4 -4 4 -10z m1535 -80
c6 -19 -12 -56 -22 -46 -2 2 -20 0 -39 -6 -42 -11 -94 -2 -94 18 0 7 12 16 28
20 15 3 45 12 67 19 53 18 53 18 60 -5z m105 -104 c0 -15 -18 -31 -26 -23 -7
7 7 37 17 37 5 0 9 -6 9 -14z m-1126 -75 c-6 -6 -24 19 -24 34 1 6 7 1 15 -9
8 -11 12 -22 9 -25z m-1733 -28 c-30 -59 -56 -86 -30 -33 21 45 38 70 45 70 3
0 -4 -17 -15 -37z m500 -20 c-12 -20 -14 -14 -5 12 4 9 9 14 11 11 3 -2 0 -13
-6 -23z m1266 12 c9 -24 -1 -27 -15 -5 -8 13 -8 20 -2 20 6 0 13 -7 17 -15z
m-1307 -15 c0 -5 -2 -10 -4 -10 -3 0 -8 5 -11 10 -3 6 -1 10 4 10 6 0 11 -4
11 -10z m1346 -45 c9 -13 31 -30 50 -37 36 -13 43 -40 13 -46 -15 -3 -59 29
-59 43 0 4 -9 20 -21 36 -11 16 -16 29 -10 29 6 0 18 -11 27 -25z m-997 -36
c-19 -12 -24 -2 -8 17 9 11 14 13 17 4 3 -7 -2 -16 -9 -21z m1111 -6 c0 -26
-3 -34 -11 -26 -9 9 -3 63 7 63 2 0 4 -17 4 -37z m41 -250 c13 -16 12 -17 -3
-4 -10 7 -18 15 -18 17 0 8 8 3 21 -13z m49 -53 c0 -5 -5 -10 -11 -10 -5 0 -7
5 -4 10 3 6 8 10 11 10 2 0 4 -4 4 -10z m1156 -71 c76 -23 96 -35 72 -44 -21
-8 -309 -12 -296 -4 12 8 -22 29 -46 29 -9 0 -16 5 -16 10 0 35 182 41 286 9z
m-1196 -25 c0 -2 -7 -4 -15 -4 -8 0 -15 4 -15 10 0 5 7 7 15 4 8 -4 15 -8 15
-10z m46 -5 c3 -6 0 -17 -7 -25 -12 -11 -14 -9 -15 11 -2 26 10 33 22 14z
m-46 -39 c8 -5 12 -11 10 -14 -8 -7 -60 6 -60 15 0 12 31 11 50 -1z m-2010
-20 c0 -5 5 -10 11 -10 5 0 7 5 4 10 -9 15 1 12 14 -4 9 -11 6 -15 -13 -18
-18 -4 -26 0 -29 14 -3 10 -1 18 4 18 5 0 9 -4 9 -10z m3171 -20 c-13 -11 -29
-20 -36 -20 -7 0 -18 -6 -24 -14 -13 -15 11 -23 102 -33 53 -6 60 -17 20 -30
-24 -7 -78 -8 -256 -2 -15 0 -16 3 -7 14 7 8 17 12 23 8 6 -4 7 -1 3 6 -5 7
-19 16 -32 21 -38 15 -28 30 20 30 24 0 63 9 87 20 24 11 62 20 84 19 l40 0
-24 -19z m-2591 -5 c0 -8 6 -16 13 -18 6 -3 2 -6 -10 -6 -18 -1 -53 22 -53 33
0 2 11 4 25 4 14 0 25 -6 25 -13z m1460 11 c0 -3 -4 -8 -10 -11 -5 -3 -10 -1
-10 4 0 6 5 11 10 11 6 0 10 -2 10 -4z m78 -8 c38 -47 5 -254 -49 -309 -16
-17 -29 -34 -29 -39 0 -6 -7 -10 -15 -10 -8 0 -15 4 -15 9 0 5 7 11 15 15 17
6 21 36 5 36 -6 0 -13 -7 -16 -15 -4 -8 -11 -12 -18 -8 -6 3 -8 3 -4 -2 4 -4
4 -13 0 -19 -5 -6 -17 -46 -26 -88 -15 -62 -23 -79 -40 -84 -31 -10 -47 -34
-95 -146 -15 -35 -24 -46 -36 -42 -8 3 -15 13 -15 22 0 13 -3 12 -15 -5 -16
-22 -55 -23 -81 -2 -6 5 -14 6 -17 2 -4 -3 -7 -1 -7 6 0 7 -5 9 -12 5 -7 -4
-10 -3 -5 1 9 10 -31 55 -49 55 -13 0 -69 50 -56 50 4 0 0 6 -9 13 -32 24 -39
51 -23 83 9 16 22 33 31 38 12 6 12 10 3 16 -9 6 -9 13 -1 29 9 17 9 21 -1 19
-7 -2 -11 4 -9 12 2 8 3 20 3 25 -5 74 1 109 21 129 10 10 17 13 17 6 0 -7 7
-10 15 -7 8 4 17 2 20 -3 4 -6 16 -10 28 -10 18 0 19 -2 7 -10 -13 -8 -12 -10
3 -10 10 0 15 -5 12 -11 -8 -12 30 -51 39 -41 4 3 11 0 16 -8 8 -13 10 -12 10
3 0 10 5 15 10 12 6 -3 10 1 10 9 0 8 6 19 13 23 7 4 23 23 36 41 17 24 26 30
35 23 9 -7 19 -3 37 15 13 15 44 47 69 71 25 25 39 42 32 38 -9 -5 -12 -1 -10
11 7 41 45 57 68 29 10 -12 9 -15 -5 -15 -24 0 -17 -6 18 -14 19 -4 27 -3 27
7 0 14 31 57 41 57 4 0 11 -6 17 -12z m-2431 -124 c15 -14 40 -28 56 -31 25
-5 60 -43 40 -43 -4 0 -2 -4 6 -9 9 -6 11 -18 7 -34 -6 -27 -33 -36 -80 -27
-25 4 -33 13 -47 55 -17 46 -25 115 -15 115 3 0 17 -12 33 -26z m883 -5 c0 -6
-4 -7 -10 -4 -5 3 -10 11 -10 16 0 6 5 7 10 4 6 -3 10 -11 10 -16z m-1245 -2
c16 -13 15 -14 -14 -9 -17 2 -34 8 -37 13 -8 14 30 10 51 -4z m1055 -5 c24
-29 23 -62 -1 -62 -13 0 -18 -4 -13 -12 4 -7 3 -8 -4 -4 -16 9 -15 46 0 46 9
0 9 3 0 12 -13 13 -16 38 -4 38 4 0 14 -8 22 -18z m40 2 c0 -8 -4 -12 -10 -9
-5 3 -10 10 -10 16 0 5 5 9 10 9 6 0 10 -7 10 -16z m-107 -57 c-20 -34 -65
-49 -86 -28 -8 8 -7 11 2 11 7 0 10 3 8 8 -3 4 1 13 9 20 8 7 14 9 15 5 0 -4
4 1 8 12 9 24 54 37 59 18 2 -7 -5 -28 -15 -46z m107 5 c0 -15 -2 -15 -10 -2
-13 20 -13 33 0 25 6 -3 10 -14 10 -23z m-15 -108 c8 3 19 -3 24 -12 15 -26
-25 -65 -52 -51 -15 9 -18 8 -12 -2 6 -8 4 -10 -5 -4 -7 4 -16 2 -22 -6 -8
-11 -8 -10 -4 4 3 10 6 34 6 53 0 21 4 33 10 29 6 -3 10 4 10 17 1 22 2 22 16
-5 9 -17 21 -26 29 -23z m-1133 -4 l62 -17 -54 -8 c-101 -15 -191 0 -211 36
-10 19 -8 20 65 13 42 -4 104 -14 138 -24z m1211 -56 c16 -33 16 -38 2 -60
-25 -38 -75 -26 -75 18 0 18 38 78 49 78 3 0 14 -17 24 -36z m-173 -103 c0 -6
-4 -12 -9 -15 -5 -4 -19 -26 -30 -49 -12 -24 -37 -66 -56 -93 -28 -39 -35 -45
-35 -27 0 33 34 91 87 149 12 13 20 24 17 24 -3 0 -2 5 1 10 8 13 25 13 25 1z
m47 -27 c-3 -3 -12 -4 -19 -1 -8 3 -5 6 6 6 11 1 17 -2 13 -5z m133 -29 c8 -3
33 -17 55 -30 40 -24 39 -27 -11 -38 -24 -5 -74 32 -74 55 0 8 -6 20 -12 27
-11 11 -9 11 7 3 11 -6 27 -13 35 -17z m-806 -107 c3 -51 9 -145 14 -208 9
-110 8 -117 -13 -155 -29 -50 -103 -124 -132 -131 -48 -12 -58 -2 -57 56 1 42
10 72 39 130 51 102 71 164 90 278 20 118 21 122 39 122 11 0 15 -21 20 -92z
m708 68 c6 -8 8 -8 8 0 0 11 69 -17 100 -41 15 -12 113 -45 134 -45 6 0 29
-11 51 -25 l40 -24 -37 6 c-21 3 -38 3 -38 0 0 -16 13 -36 21 -32 4 3 13 -4
19 -15 6 -11 14 -18 18 -16 5 3 14 1 22 -4 12 -7 12 -12 2 -22 -9 -9 -12 -9
-12 3 -1 9 -7 6 -20 -10 -11 -13 -20 -18 -20 -12 0 7 -5 9 -11 6 -6 -4 -8 -13
-5 -21 3 -9 -1 -11 -12 -8 -14 5 -13 3 2 -10 19 -16 19 -16 -2 -16 -12 0 -22
4 -22 10 0 5 -7 7 -15 4 -14 -6 -20 11 -16 38 0 5 -5 7 -11 5 -9 -1 -13 10
-12 35 1 28 -3 38 -17 41 -12 3 -19 0 -19 -9 0 -8 -3 -13 -7 -11 -20 6 -15
-19 5 -28 39 -17 26 -33 -25 -30 -27 1 -49 3 -51 4 -1 0 3 11 9 24 11 20 11
21 -4 8 -14 -11 -18 -11 -23 4 -6 16 -8 16 -16 1 -10 -18 -43 -22 -53 -6 -3 6
-19 10 -36 10 -28 0 -29 2 -29 43 l0 42 -20 -33 c-23 -38 -46 -49 -68 -35 -18
11 -25 66 -8 60 6 -3 26 4 44 15 26 16 35 18 47 8 13 -11 15 -6 15 34 0 26 5
53 12 60 13 14 49 9 60 -8z m1650 -31 c0 -5 -5 -11 -11 -13 -6 -2 -11 4 -11
13 0 9 5 15 11 13 6 -2 11 -8 11 -13z m-1477 -15 c3 -5 1 -10 -4 -10 -6 0 -11
5 -11 10 0 6 2 10 4 10 3 0 8 -4 11 -10z m1519 -69 c3 -5 -1 -11 -9 -15 -9 -3
-15 0 -15 9 0 16 16 20 24 6z m-44 -11 c0 -5 -4 -10 -10 -10 -5 0 -10 5 -10
10 0 6 5 10 10 10 6 0 10 -4 10 -10z m-1166 -184 c8 3 17 -3 21 -15 3 -11 15
-23 26 -26 22 -7 26 -25 4 -25 -20 0 -145 52 -145 60 0 4 10 7 23 6 18 -1 21
4 19 23 l-2 24 20 -26 c11 -14 27 -24 34 -21z m-13 21 c-10 -9 -11 -8 -5 6 3
10 9 15 12 12 3 -3 0 -11 -7 -18z m-71 -78 c0 -14 -17 -10 -23 5 -4 10 -1 13
9 9 7 -3 14 -9 14 -14z m890 -4 c0 -23 -44 -115 -88 -186 -22 -35 -45 -84 -51
-107 -5 -24 -13 -47 -17 -50 -4 -4 -4 1 -1 11 4 11 3 16 -3 12 -17 -10 -85 37
-129 89 -9 10 -26 28 -37 40 -18 18 -20 25 -10 46 13 29 24 33 89 32 26 -1 47
4 47 9 0 6 4 8 9 5 5 -4 11 -1 13 5 2 5 18 11 36 11 18 1 37 7 43 15 6 7 8 13
5 13 -10 0 22 32 53 52 32 22 41 22 41 3z m-913 -40 c0 -8 -4 -15 -8 -15 -4 0
-9 7 -13 15 -3 9 0 15 8 15 7 0 13 -7 13 -15z m-370 -71 c3 -7 -5 -25 -16 -40
-12 -15 -21 -33 -21 -40 0 -8 -10 -14 -22 -14 l-23 0 25 -25 c38 -38 81 -42
114 -12 14 14 40 30 56 37 39 16 39 34 0 28 -23 -4 -30 -1 -30 13 0 9 -9 19
-20 22 -21 5 -28 -7 -10 -18 6 -3 10 -19 10 -35 0 -40 -32 -58 -66 -35 -29 19
-30 34 -4 68 11 14 20 30 20 36 0 16 112 7 165 -12 34 -12 40 -18 38 -42 -2
-22 1 -25 15 -20 9 4 31 11 47 14 21 5 29 13 27 24 -3 20 23 13 52 -14 10 -10
32 -21 49 -25 l31 -6 -25 -14 c-30 -17 -71 -18 -87 -2 -7 7 -12 8 -12 2 0 -6
9 -19 19 -28 11 -10 22 -28 25 -42 4 -16 13 -24 28 -24 20 0 86 -16 118 -28
18 -7 29 -9 53 -11 11 -1 15 -6 11 -13 -5 -8 5 -9 34 -5 23 3 42 1 42 -4 0 -4
7 -5 17 -2 11 4 14 3 9 -5 -5 -8 -2 -10 8 -6 11 4 16 0 16 -10 0 -19 16 -22
22 -4 3 8 17 0 38 -22 19 -19 28 -27 21 -17 -11 14 -11 17 2 17 9 0 19 -4 22
-10 9 -15 38 -12 29 3 -3 6 5 0 20 -15 27 -29 59 -38 51 -15 -8 21 50 18 73
-3 12 -11 28 -17 36 -14 8 3 25 0 38 -7 13 -7 26 -12 31 -11 4 1 7 -5 7 -13 0
-11 -7 -14 -22 -11 -23 5 -120 13 -278 22 -47 3 -101 7 -120 10 -19 3 -45 6
-57 6 -13 0 -23 5 -23 10 0 6 -8 4 -17 -3 -11 -9 -14 -10 -9 -2 5 10 -4 11
-36 7 -56 -7 -121 -5 -128 4 -3 4 -9 8 -15 9 -5 1 -19 5 -30 9 -16 6 -18 5 -7
-7 18 -20 15 -29 -13 -29 -14 0 -25 4 -25 9 0 5 -11 11 -25 13 -13 3 -23 1
-22 -5 1 -5 -4 -12 -11 -14 -8 -3 -10 1 -6 11 4 11 1 16 -10 16 -9 0 -16 4
-16 8 0 5 -33 19 -72 33 -55 18 -94 24 -156 23 -70 0 -82 2 -80 15 2 9 8 15
13 14 6 0 18 3 28 8 19 11 24 49 5 49 -6 0 -22 10 -34 21 l-23 22 -12 -27 c-7
-14 -16 -26 -21 -26 -4 0 -7 -5 -5 -11 3 -17 -77 -76 -121 -89 -20 -7 -92 -14
-159 -17 -97 -5 -132 -2 -172 11 -27 9 -74 16 -103 16 -48 0 -78 12 -78 30 0
3 19 7 42 9 23 1 46 5 51 8 5 3 51 7 102 9 51 2 148 10 216 19 100 12 136 21
189 47 36 18 68 31 73 30 4 -1 6 1 5 6 -1 4 2 41 6 82 l8 75 40 -3 c22 -3 42
-10 45 -18z m-46 -404 c24 0 25 -19 2 -27 -25 -9 -33 -23 -33 -61 0 -39 16
-34 25 8 9 43 85 96 85 60 0 -5 -6 -10 -13 -10 -8 0 -22 -9 -32 -20 -22 -24
-14 -25 27 -4 17 9 45 14 64 12 18 -2 30 0 28 4 -3 4 -15 9 -27 9 -18 1 -19 2
-4 6 10 3 29 -2 42 -11 13 -9 30 -16 37 -16 10 0 10 2 0 9 -16 10 16 21 60 21
l27 0 3 -146 3 -146 -95 6 c-52 4 -135 12 -185 19 l-90 12 -1 30 c0 17 7 36
15 43 14 11 14 11 -1 6 -16 -6 -18 3 -18 101 l0 108 31 -7 c17 -3 40 -6 50 -6z
m-150 -27 c-8 -15 -10 -15 -11 -2 0 17 10 32 18 25 2 -3 -1 -13 -7 -23z m589
-13 c0 -5 -12 -10 -27 -11 -16 0 -22 -3 -15 -6 6 -2 9 -10 5 -16 -4 -7 1 -6
11 2 15 13 19 13 27 0 10 -16 12 -191 3 -226 -7 -24 -47 -33 -59 -13 -3 6 -16
10 -28 11 -22 0 -22 0 2 10 19 7 22 14 17 35 -4 14 -4 70 0 125 l7 99 28 0
c16 0 29 -4 29 -10z m-550 -125 c0 -58 -4 -105 -8 -105 -5 0 -20 29 -35 65
-40 98 -36 145 14 145 l29 0 0 -105z"/>
<path d="M17010 3811 c0 -5 7 -12 16 -15 14 -5 15 -4 4 9 -14 17 -20 19 -20 6z"/>
<path d="M16995 3780 c-3 -5 -5 -10 -3 -11 29 -7 36 -5 31 7 -6 16 -19 18 -28
4z"/>
<path d="M17007 3723 c-10 -9 -9 -23 2 -23 5 0 11 7 15 15 5 15 -5 20 -17 8z"/>
<path d="M17016 3653 c-12 -13 -6 -35 8 -30 8 3 17 1 19 -6 2 -7 8 -9 12 -4 5
4 -1 16 -12 27 -12 10 -24 16 -27 13z"/>
<path d="M15436 3513 c-13 -14 -5 -33 14 -33 11 0 20 6 20 14 0 15 -24 28 -34
19z"/>
<path d="M15402 2773 c2 -9 10 -19 18 -21 13 -5 13 -3 0 13 -14 17 -13 18 3
12 9 -3 17 -2 17 3 0 6 -9 10 -21 10 -14 0 -19 -5 -17 -17z"/>
<path d="M15460 2695 c0 -16 11 -23 48 -28 12 -2 28 -9 34 -15 7 -7 16 -12 22
-12 5 0 18 -8 29 -17 19 -17 20 -17 14 0 -5 13 2 11 31 -11 22 -16 51 -29 71
-30 19 -1 39 -6 45 -12 15 -15 33 -12 33 5 0 8 -9 15 -19 15 -10 0 -18 5 -18
11 0 5 -4 7 -10 4 -5 -3 -10 -1 -10 4 0 15 -40 14 -41 -1 0 -7 -5 0 -11 15 -5
15 -15 26 -21 24 -7 -2 -23 3 -37 13 -43 29 -54 34 -46 22 4 -7 3 -12 -2 -12
-5 0 -12 9 -15 20 -4 16 -14 20 -51 20 -35 0 -46 -4 -46 -15z"/>
<path d="M15855 2540 c3 -5 8 -10 11 -10 2 0 4 5 4 10 0 6 -5 10 -11 10 -5 0
-7 -4 -4 -10z"/>
<path d="M15927 2543 c-4 -3 -7 -11 -7 -17 0 -6 5 -5 12 2 6 6 9 14 7 17 -3 3
-9 2 -12 -2z"/>
<path d="M15525 2350 c-3 -6 1 -7 9 -4 18 7 21 14 7 14 -6 0 -13 -4 -16 -10z"/>
<path d="M15490 2225 c-7 -9 -11 -18 -8 -20 3 -3 11 1 18 10 7 9 11 18 8 20
-3 3 -11 -1 -18 -10z"/>
<path d="M15300 2200 c0 -5 7 -10 15 -10 8 0 15 5 15 10 0 6 -7 10 -15 10 -8
0 -15 -4 -15 -10z"/>
<path d="M15364 2186 c11 -9 34 -16 50 -15 l31 1 -30 8 c-16 4 -39 11 -50 15
-20 7 -20 6 -1 -9z"/>
<path d="M15200 2356 c0 -7 7 -19 15 -26 13 -11 15 -8 15 14 0 16 -5 26 -15
26 -8 0 -15 -6 -15 -14z"/>
<path d="M14984 6114 c-40 -52 -104 -92 -176 -110 -73 -19 -91 -29 -33 -19 70
12 101 25 161 66 52 37 56 38 40 14 -10 -15 -15 -29 -12 -32 5 -5 66 85 66 98
0 23 -22 15 -46 -17z m36 12 c0 -2 -8 -10 -17 -17 -16 -13 -17 -12 -4 4 13 16
21 21 21 13z"/>
<path d="M17180 5966 c0 -3 9 -10 20 -16 11 -6 20 -8 20 -6 0 3 -9 10 -20 16
-11 6 -20 8 -20 6z"/>
<path d="M14606 5915 c-11 -8 -16 -15 -10 -15 5 0 18 7 28 15 11 8 16 15 10
15 -5 0 -18 -7 -28 -15z"/>
<path d="M14540 5885 c-14 -8 -20 -14 -15 -14 6 0 21 6 35 14 14 8 21 14 15
14 -5 0 -21 -6 -35 -14z"/>
<path d="M14485 5860 c-3 -6 1 -7 9 -4 18 7 21 14 7 14 -6 0 -13 -4 -16 -10z"/>
<path d="M17467 5814 c-27 -20 -47 -38 -44 -40 3 -3 27 11 54 31 59 45 58 45
47 45 -5 0 -31 -16 -57 -36z"/>
<path d="M14475 5713 c4 -16 11 -53 15 -83 l7 -55 2 51 c1 63 -8 114 -21 114
-6 0 -7 -11 -3 -27z"/>
<path d="M17120 5721 c0 -5 7 -11 14 -14 10 -4 13 -1 9 9 -6 15 -23 19 -23 5z"/>
<path d="M14306 5693 c-6 -14 -5 -15 5 -6 7 7 10 15 7 18 -3 3 -9 -2 -12 -12z"/>
<path d="M17297 5606 c-18 -17 -22 -26 -13 -29 7 -3 21 8 30 24 21 35 17 36
-17 5z"/>
<path d="M17232 5578 c-14 -14 -16 -28 -2 -28 5 0 14 9 20 20 12 22 1 27 -18
8z"/>
<path d="M14474 5546 c-3 -14 -10 -26 -16 -26 -5 0 -7 -4 -3 -9 3 -5 1 -12 -5
-16 -5 -3 -10 -11 -10 -17 0 -22 39 25 45 54 9 37 -2 50 -11 14z"/>
<path d="M15520 4980 c-8 -5 -12 -12 -9 -15 4 -3 12 1 19 10 14 17 11 19 -10
5z"/>
<path d="M15198 4955 c-18 -18 -24 -32 -20 -50 3 -20 7 -23 18 -14 8 6 21 8
30 5 13 -5 14 -2 8 11 -4 10 -8 30 -8 46 -1 15 -2 27 -2 27 -1 0 -13 -11 -26
-25z"/>
<path d="M15598 4955 c2 -14 -1 -32 -8 -40 -15 -18 -51 -20 -68 -3 -7 7 -12 8
-12 2 0 -6 9 -19 20 -29 18 -17 21 -17 45 -1 29 19 47 58 39 81 -10 24 -22 17
-16 -10z"/>
<path d="M15561 4946 c-7 -8 -8 -17 -3 -20 6 -3 13 1 16 10 9 23 2 28 -13 10z"/>
<path d="M15600 4871 c0 -12 29 -23 42 -15 6 4 5 10 -3 15 -18 11 -39 11 -39
0z"/>
<path d="M15105 4720 c-3 -5 -1 -10 4 -10 6 0 11 5 11 10 0 6 -2 10 -4 10 -3
0 -8 -4 -11 -10z"/>
<path d="M15706 4385 c-3 -8 -1 -17 3 -20 5 -3 11 2 15 10 3 8 1 17 -3 20 -5
3 -11 -2 -15 -10z"/>
<path d="M15773 4344 c0 -18 2 -22 8 -13 11 18 11 39 0 39 -5 0 -8 -12 -8 -26z"/>
<path d="M15491 4243 c-1 -26 24 -31 33 -7 4 11 2 15 -8 11 -8 -3 -17 -1 -20
6 -2 7 -5 2 -5 -10z"/>
<path d="M18162 4241 c-29 -24 -28 -29 4 -23 23 4 25 2 22 -24 -3 -25 -7 -29
-31 -27 -15 1 -25 -2 -22 -8 4 -5 12 -9 20 -9 7 0 15 -7 19 -15 6 -17 64 -55
84 -55 20 0 14 47 -12 77 -13 15 -26 45 -30 66 -8 41 -22 46 -54 18z"/>
<path d="M18105 4190 c3 -5 8 -10 11 -10 2 0 4 5 4 10 0 6 -5 10 -11 10 -5 0
-7 -4 -4 -10z"/>
<path d="M15575 4040 c-3 -5 -1 -10 4 -10 6 0 11 5 11 10 0 6 -2 10 -4 10 -3
0 -8 -4 -11 -10z"/>
<path d="M17691 3463 c-1 -6 -4 -20 -7 -30 -5 -17 -5 -17 6 0 6 10 9 23 6 30
-3 9 -5 9 -5 0z"/>
<path d="M17650 3303 c0 -12 -6 -42 -14 -65 -7 -24 -19 -74 -26 -113 -7 -38
-15 -77 -18 -85 -3 -10 -2 -12 5 -5 11 12 28 72 38 135 4 25 14 62 22 82 11
27 12 42 4 55 -10 17 -10 16 -11 -4z"/>
<path d="M17020 3060 c0 -5 11 -10 25 -10 16 0 25 -6 25 -15 0 -8 -9 -15 -20
-15 -11 0 -20 -7 -20 -15 0 -8 9 -15 19 -15 11 0 21 -5 23 -11 4 -12 38 -1 38
12 0 5 -12 9 -26 9 -22 0 -24 2 -14 15 18 22 3 55 -26 55 -13 0 -24 -4 -24
-10z"/>
<path d="M17330 2310 c-13 -11 -27 -20 -32 -20 -5 0 -8 -8 -6 -17 2 -10 -3
-18 -12 -18 -8 0 -15 -9 -15 -19 0 -10 -10 -22 -22 -27 -13 -5 -24 -20 -28
-39 -9 -40 -4 -45 25 -20 73 63 148 -25 169 -199 8 -63 14 -78 42 -107 18 -19
39 -34 46 -34 7 0 13 -4 13 -10 0 -16 26 -11 44 9 9 10 30 21 45 24 17 4 51
31 89 72 68 72 70 80 53 187 -8 45 -17 63 -43 88 -52 48 -184 79 -147 34 9
-11 6 -16 -14 -23 -13 -5 -36 -24 -50 -42 -14 -19 -28 -31 -31 -28 -5 4 -1 12
33 70 l14 24 -26 -23 c-14 -13 -31 -37 -37 -53 -10 -24 -15 -27 -31 -18 -15 8
-17 14 -9 29 14 27 12 34 -5 20 -8 -7 -23 -9 -32 -6 -15 6 -14 9 7 19 24 12
36 52 19 63 -4 2 -5 12 -2 20 4 11 8 12 13 5 4 -8 15 -9 31 -3 23 9 21 10 -28
35 -51 26 -51 26 -73 7z m60 -101 c0 -15 -22 -21 -31 -8 -14 22 -11 28 11 22
11 -3 20 -9 20 -14z m268 -73 c-19 -34 -72 -92 -97 -106 -37 -19 -46 -5 -13
19 27 19 32 29 32 62 0 24 4 38 10 34 6 -3 10 -20 10 -37 0 -30 0 -31 20 -13
11 10 20 23 20 30 0 10 19 35 27 35 2 0 -2 -11 -9 -24z m-108 -30 c0 -3 -4 -8
-10 -11 -5 -3 -10 -1 -10 4 0 6 5 11 10 11 6 0 10 -2 10 -4z m79 -98 c-13 -17
-24 -27 -26 -21 -5 13 27 53 40 53 5 0 -2 -14 -14 -32z m-142 16 c-3 -3 -12
-4 -19 -1 -8 3 -5 6 6 6 11 1 17 -2 13 -5z m25 -56 c-7 -7 -12 -8 -12 -2 0 14
12 26 19 19 2 -3 -1 -11 -7 -17z m187 -16 c-16 -26 -38 -38 -79 -46 -19 -3
-29 -3 -22 0 6 3 12 12 12 20 0 7 6 11 13 8 7 -2 23 5 35 16 12 11 22 17 22
13 0 -4 5 -2 12 5 17 17 21 7 7 -16z m-134 -32 c3 -5 1 -10 -4 -10 -6 0 -11 5
-11 10 0 6 2 10 4 10 3 0 8 -4 11 -10z"/>
<path d="M17470 2255 c-7 -9 -11 -18 -8 -20 3 -3 11 1 18 10 7 9 11 18 8 20
-3 3 -11 -1 -18 -10z"/>
<path d="M17425 2209 c-10 -15 3 -25 16 -12 7 7 7 13 1 17 -6 3 -14 1 -17 -5z"/>
<path d="M14050 1736 c0 -8 5 -18 10 -21 6 -3 10 1 10 9 0 8 -4 18 -10 21 -5
3 -10 -1 -10 -9z"/>
<path d="M17119 1303 l-24 -28 28 24 c25 23 32 31 24 31 -2 0 -14 -12 -28 -27z"/>
<path d="M13970 1185 c0 -12 -4 -25 -10 -31 -6 -6 -3 -22 10 -47 11 -20 16
-37 10 -37 -5 0 -10 -4 -10 -10 0 -5 12 -10 26 -10 23 0 25 3 19 29 -10 48
-44 128 -45 106z"/>
<path d="M13695 968 c4 -18 17 -44 30 -58 12 -14 30 -36 40 -50 11 -15 15 -18
11 -7 -3 10 -6 25 -6 32 0 8 -14 30 -30 49 -19 21 -28 40 -24 50 4 11 1 16
-11 16 -13 0 -15 -6 -10 -32z"/>
<path d="M13720 972 c0 -12 19 -26 26 -19 2 2 -2 10 -11 17 -9 8 -15 8 -15 2z"/>
<path d="M14006 941 c-5 -7 -19 -16 -32 -21 -22 -9 -23 -11 -10 -47 10 -30 18
-38 37 -38 20 0 24 6 27 35 4 43 -11 89 -22 71z"/>
<path d="M13780 827 c0 -4 11 -28 24 -54 20 -36 22 -49 13 -63 -15 -26 7 -50
46 -50 35 0 197 39 210 50 10 8 -2 40 -15 40 -5 0 -7 -4 -4 -8 21 -34 -154
-40 -197 -8 -14 11 -24 23 -21 28 3 4 0 8 -6 8 -5 0 -19 15 -30 33 -11 17 -20
28 -20 24z"/>
<path d="M14265 630 c4 -19 11 -39 16 -45 6 -6 7 4 3 25 -4 19 -11 40 -16 45
-7 7 -8 -2 -3 -25z"/>
</g>
</svg>
